<svg xmlns="http://www.w3.org/2000/svg" viewBox="0 0 512 512">
 <defs>
  <linearGradient id="bg" x1="0" y1="0" x2="1" y2="1">
   <stop offset="0" stop-color="#22C55E"/><stop offset="1" stop-color="#16A34A"/></linearGradient>
  <clipPath id="round"><rect width="512" height="512" rx="112"/></clipPath>
 </defs>
 <rect width="512" height="512" rx="112" fill="url(#bg)"/>

 <!-- 배경: 해와 산 (종 뒤로 살짝) -->
 <g clip-path="url(#round)">
  <circle cx="62" cy="68" r="30" fill="#F4B324"/>
  <path d="M-20 330 L44 262 L100 314 L160 258 L226 330 L226 420 L-20 420Z" fill="#0F7A38" opacity=".42"/>
  <path d="M-20 372 L36 322 L92 366 L146 320 L210 378 L210 430 L-20 430Z" fill="#0F7A38" opacity=".28"/>
 </g>

 <!-- 반짝임 -->
 <g stroke="#F4B324" stroke-width="19" stroke-linecap="round">
  <path d="M446 74 L436 112"/><path d="M488 116 L456 144"/>
 </g>

 <!-- 종 (봉화 글씨를 넉넉히 감싸도록 크게) -->
 <rect x="240" y="58" width="32" height="38" rx="16" fill="#fff"/>
 <path d="M256 84c-84 0-124 92-132 186-4 44-14 70-28 92h320c-14-22-24-48-28-92-8-94-48-186-132-186Z" fill="#fff"/>
 <!-- 종 입(테두리) — 넓게 벌어진 아가리 -->
 <rect x="72" y="358" width="368" height="48" rx="24" fill="#fff"/>
 <!-- 몸통과 아가리 경계선 — 이게 있어야 종으로 보인다 -->
 <path d="M100 360H412" stroke="#16A34A" stroke-width="7" stroke-linecap="round" opacity=".22"/>
 <!-- 달랑거리는 추 (아가리 아래로 완전히 내려온다) -->
 <rect x="248" y="400" width="16" height="34" rx="8" fill="#F4B324"/>
 <circle cx="256" cy="458" r="30" fill="#F4B324"/>

 <text x="256" y="318" font-family="-apple-system,'Apple SD Gothic Neo','Noto Sans KR',sans-serif"
       font-size="132" font-weight="800" fill="#16A34A" text-anchor="middle" letter-spacing="-6">봉화</text>

 <!-- 오늘 날짜 — 작아서 안 보이던 숫자를 크게 (봉화 글씨와 겹쳐도 됨) -->
 <g>
  <rect x="286" y="310" width="202" height="180" rx="28" fill="#fff"/>
  <path d="M286 338a28 28 0 0 1 28-28h146a28 28 0 0 1 28 28v34H286Z" fill="#F4B324"/>
  <rect x="330" y="290" width="17" height="38" rx="8" fill="#0F7A38"/>
  <rect x="427" y="290" width="17" height="38" rx="8" fill="#0F7A38"/>
  <text x="387" y="362" font-family="-apple-system,'Apple SD Gothic Neo','Noto Sans KR',sans-serif"
        font-size="30" font-weight="800" fill="#fff" text-anchor="middle">오늘</text>
  <text x="387" y="462" font-family="-apple-system,'Apple SD Gothic Neo','Noto Sans KR',sans-serif"
        font-size="94" font-weight="800" fill="#16A34A" text-anchor="middle">24</text>
 </g>
</svg>
